:FULLY-SPECIFIED
:FORCE-ALL-JOINTS-BE-3DOF
:DEGREES
136
root 7.75212 16.4977 -26.2838 -10.377 10.6504 5.24842
lfemur -6.15574 13.8194 -21.2474
ltibia 36.2891 0 0
lfoot -17.9904 -13.3628 0
ltoes 31.4943 0 0
rfemur -102.033 -25.1905 58.5183
rtibia 94.5972 0 0
rfoot 19.65 26.7516 0
rtoes -36.253 0 0
lowerback 17.2167 -3.6598 -9.0347
upperback 5.64683 -6.37671 -2.09488
thorax -2.77392 -3.19228 4.0438
lowerneck -12.4699 -0.687388 -0.643829
upperneck 0.296583 -0.973045 3.56576
head 2.28111 -0.366641 1.20841
lclavicle 2.27804e-15 1.60882e-14 0
lhumerus -40.8132 -23.4503 90.139
lradius 52.8914 0 0
lwrist 18.0894 0 0
lhand 10.1373 7.05167 0
lfingers 7.12502 0 0
lthumb 35.2549 33.5325 0
rclavicle 2.27804e-15 1.60882e-14 0
rhumerus -45.2389 -27.6475 -58.2311
rradius 82.7975 0 0
rwrist -39.7242 0 0
rhand -29.2036 -26.836 0
rfingers 7.12502 0 0
rthumb -2.54827 -56.8006 0
137
root 7.75804 16.4962 -26.2765 -10.4541 10.7098 5.27866
lfemur -6.10371 13.8669 -21.2486
ltibia 36.2951 0 0
lfoot -17.9081 -13.4376 0
ltoes 31.4659 0 0
rfemur -102.367 -25.2937 58.6717
rtibia 94.8501 0 0
rfoot 19.8846 26.884 0
rtoes -36.4172 0 0
lowerback 17.2971 -3.69049 -9.05049
upperback 5.67938 -6.42399 -2.11563
thorax -2.77825 -3.21644 4.03579
lowerneck -12.4801 -0.681577 -0.654995
upperneck 0.303367 -0.964768 3.58669
head 2.28556 -0.361871 1.21725
lclavicle 2.91227e-15 1.62013e-14 0
lhumerus -40.806 -23.5061 90.1032
lradius 52.9613 0 0
lwrist 18.1498 0 0
lhand 10.2288 7.06936 0
lfingers 7.12502 0 0
lthumb 35.3425 33.5373 0
rclavicle 2.91227e-15 1.62013e-14 0
rhumerus -45.2474 -27.7409 -58.1264
rradius 82.9675 0 0
rwrist -39.9157 0 0
rhand -29.2461 -26.8693 0
rfingers 7.12502 0 0
rthumb -2.58938 -56.8334 0
138
root 7.76371 16.4948 -26.2696 -10.5279 10.767 5.30759
lfemur -6.05405 13.9126 -21.2497
ltibia 36.301 0 0
lfoot -17.8292 -13.5095 0
ltoes 31.4387 0 0
rfemur -102.687 -25.3926 58.8183
rtibia 95.0935 0 0
rfoot 20.1118 27.0097 0
rtoes -36.5695 0 0
lowerback 17.374 -3.72 -9.06556
upperback 5.71054 -6.46942 -2.13555
thorax -2.78239 -3.23966 4.02808
lowerneck -12.4898 -0.676045 -0.665731
upperneck 0.309862 -0.956882 3.60684
head 2.28983 -0.35732 1.22576
lclavicle 3.52843e-15 1.63003e-14 0
lhumerus -40.799 -23.5599 90.0689
lradius 53.0282 0 0
lwrist 18.2076 0 0
lhand 10.3167 7.08611 0
lfingers 7.12502 0 0
lthumb 35.4266 33.5415 0
rclavicle 3.52843e-15 1.63003e-14 0
rhumerus -45.2558 -27.8304 -58.0264
rradius 83.1308 0 0
rwrist -40.0987 0 0
rhand -29.2885 -26.9024 0
rfingers 7.12502 0 0
rthumb -2.63029 -56.8659 0
139
root 7.71756 16.4805 -26.2669 -10.0465 11.9082 4.97098
lfemur -6.98791 14.2862 -20.8264
ltibia 36.7829 0 0
lfoot -17.8927 -14.5121 0
ltoes 31.654 0 0
rfemur -102.903 -25.5352 57.3636
rtibia 98.8692 0 0
rfoot 29.3556 22.314 0
rtoes -17.0937 0 0
lowerback 17.1802 -4.06549 -8.86558
upperback 5.54475 -6.87863 -2.15319
thorax -2.83323 -3.43224 3.95824
lowerneck -12.3761 -0.838353 -0.802575
upperneck 0.284744 -1.1632 3.884
head 2.27077 -0.452478 1.32811
lclavicle 5.35725e-14 -1.86858e-14 0
lhumerus -40.1384 -24.6203 90.1707
lradius 52.2274 0 0
lwrist 17.6404 0 0
lhand 11.4487 7.55993 0
lfingers 7.12502 0 0
lthumb 36.499 33.7523 0
rclavicle 5.35725e-14 -1.86858e-14 0
rhumerus -46.1521 -27.9074 -58.8192
rradius 84.1539 0 0
rwrist -38.0524 0 0
rhand -35.3168 -31.2119 0
rfingers 7.12502 0 0
rthumb -8.45048 -61.0228 0
140
root 7.67755 16.4719 -26.2637 -9.61416 12.7312 4.73758
lfemur -7.7542 14.5949 -20.5593
ltibia 37.0857 0 0
lfoot -18.1414 -14.4923 0
ltoes 30.4252 0 0
rfemur -102.396 -25.9308 55.9477
rtibia 101.303 0 0
rfoot 30.6422 21.856 0
rtoes -13.9429 0 0
lowerback 16.9562 -4.24664 -8.76179
upperback 5.39494 -7.08597 -2.14635
thorax -2.86242 -3.5285 3.92767
lowerneck -12.2757 -0.999673 -0.847507
upperneck 0.258218 -1.37711 4.05628
head 2.25338 -0.554847 1.38011
lclavicle 4.20478e-14 -2.15324e-14 0
lhumerus -39.5842 -25.3979 90.3212
lradius 51.5724 0 0
lwrist 16.7657 0 0
lhand 12.563 8.0092 0
lfingers 7.12502 0 0
lthumb 37.5487 33.8938 0
rclavicle 4.20478e-14 -2.15324e-14 0
rhumerus -46.9018 -27.4207 -59.6851
rradius 84.7751 0 0
rwrist -35.3714 0 0
rhand -37.4107 -36.4568 0
rfingers 7.12502 0 0
rthumb -10.4689 -89.8289 0
141
root 7.62386 16.4605 -26.2594 -9.03296 13.8277 4.42921
lfemur -8.78324 14.9958 -20.2098
ltibia 37.4885 0 0
lfoot -18.5036 -14.45 0
ltoes 28.7226 0 0
rfemur -101.699 -26.483 54.0591
rtibia 104.531 0 0
rfoot 31.8226 21.5686 0
rtoes -10.8206 0 0
lowerback 16.6541 -4.48221 -8.62745
upperback 5.19292 -7.35524 -2.13778
thorax -2.90276 -3.65326 3.88711
lowerneck -12.1385 -1.21775 -0.900267
upperneck 0.223063 -1.6673 4.28555
head 2.22987 -0.693876 1.44779
lclavicle 2.07695e-14 -2.29954e-14 0
lhumerus -38.8356 -26.4337 90.5211
lradius 50.6892 0 0
lwrist 15.5486 0 0
lhand 14.0745 8.62037 0
lfingers 7.12502 0 0
lthumb 38.9723 34.0864 0
rclavicle 2.07695e-14 -2.29954e-14 0
rhumerus -47.9076 -26.7281 -60.8567
rradius 85.5807 0 0
rwrist -31.6864 0 0
rhand -40.0107 -43.8652 0
rfingers 7.12502 0 0
rthumb -12.9743 -130.414 0
142
root 7.56419 16.4483 -26.2545 -8.38579 15.0285 4.09
lfemur -9.91848 15.4569 -19.8266
ltibia 37.9212 0 0
lfoot -18.901 -14.2706 0
ltoes 26.6584 0 0
rfemur -100.826 -27.1147 51.9176
rtibia 108.024 0 0
rfoot 32.7142 21.4289 0
rtoes -8.22091 0 0
lowerback 16.3106 -4.73379 -8.48345
upperback 4.96868 -7.64122 -2.12361
thorax -2.94342 -3.7857 3.8466
lowerneck -11.9892 -1.46153 -0.956415
upperneck 0.182568 -1.99162 4.53123
head 2.20383 -0.849584 1.51952
lclavicle -4.46705e-15 -2.30749e-14 0
lhumerus -38.0134 -27.5708 90.7569
lradius 49.7202 0 0
lwrist 14.1886 0 0
lhand 15.7554 9.29504 0
lfingers 7.12502 0 0
lthumb 40.5548 34.2897 0
rclavicle -4.46705e-15 -2.30749e-14 0
rhumerus -49.0212 -25.9162 -62.1768
rradius 86.4682 0 0
rwrist -27.5526 0 0
rhand -42.6442 -51.8565 0
rfingers 7.12502 0 0
rthumb -15.5117 -177.256 0
143
root 7.50622 16.4374 -26.2491 -7.75556 16.1645 3.76407
lfemur -11.0034 15.9463 -19.4583
ltibia 38.314 0 0
lfoot -19.2553 -13.8395 0
ltoes 24.3449 0 0
rfemur -99.7917 -27.7486 49.7425
rtibia 111.255 0 0
rfoot 33.1347 21.4141 0
rtoes -6.63766 0 0
lowerback 15.9625 -4.96297 -8.35064
upperback 4.75221 -7.89864 -2.09998
thorax -2.97355 -3.90505 3.81617
lowerneck -11.8522 -1.69993 -1.01151
upperneck 0.140024 -2.30792 4.75276
head 2.17887 -1.00199 1.58365
lclavicle -2.78664e-14 -2.17709e-14 0
lhumerus -37.2381 -28.6524 91.0146
lradius 48.8077 0 0
lwrist 12.8854 0 0
lhand 17.3781 9.93479 0
lfingers 7.12502 0 0
lthumb 42.0811 34.4634 0
rclavicle -2.78664e-14 -2.17709e-14 0
rhumerus -50.0946 -25.0717 -63.4881
rradius 87.335 0 0
rwrist -23.5252 0 0
rhand -44.8384 -58.8499 0
rfingers 7.12502 0 0
rthumb -17.6259 -224.835 0
